<?xml version="1.0" encoding="iso-8859-1"?>
<!-- Generator: Adobe Illustrator 19.0.0, SVG Export Plug-In . SVG Version: 6.00 Build 0)  -->
<svg version="1.1" id="Capa_1" xmlns="http://www.w3.org/2000/svg" xmlns:xlink="http://www.w3.org/1999/xlink" x="0px" y="0px"
	 viewBox="0 0 512 512" style="enable-background:new 0 0 512 512;" xml:space="preserve">
<path style="fill:#303C42;" d="M298.667,85.333c-31.682,0-60.422,4.12-86.314,11.633C207.362,42.753,162.158,0,106.667,0
	C47.854,0,0,47.854,0,106.667c0,50.105,34.652,91.944,82.436,103.003C70.452,238.559,64,271.853,64,309.333
	C64,458.76,179.708,512,288,512c55.406,0,224,0,224-192C512,173.063,432.25,85.333,298.667,85.333z"/>
<g>
	<path style="fill:#F06292;" d="M21.333,106.667c0-47.052,38.281-85.333,85.333-85.333c45.751,0,82.911,36.285,84.805,82.721
		c-10.263,4.034-20.065,8.589-29.182,13.879c-5.863-6.866-14.19-11.267-23.622-11.267c-17.646,0-32,14.354-32,32
		c0,7.182,2.734,13.862,7.133,19.371c-8.319,9.698-15.56,20.367-21.859,31.832C51.327,182.772,21.333,148.298,21.333,106.667z"/>
	<path style="fill:#F06292;" d="M129.065,142.323c-0.491-1.18-1.065-2.342-1.065-3.656c0-5.885,4.781-10.667,10.667-10.667
		c2.172,0,3.961,0.764,5.491,1.816C138.867,133.729,133.863,137.924,129.065,142.323z"/>
</g>
<g>
	<path style="fill:#FFFFFF;" d="M85.333,309.333c0-182.917,149.188-202.667,213.333-202.667c43.322,0,129.742,11.719,170.182,98.935
		c-6.038-2.219-12.63-2.935-20.849-2.935c-8.813,0-15.781,3.198-23.833,6.906C410.906,215.656,392.75,224,352,224
		c-36.354,0-55.813-3.302-72.979-6.208c-13.542-2.292-26.323-4.458-44.354-4.458c-42.479,0-85.333,42.875-85.333,138.667
		c0,51.465,17.107,94.341,45.859,122.753C140.548,454.664,85.333,409.721,85.333,309.333z"/>
	<path style="opacity:0.2;fill:#FFFFFF;enable-background:new    ;" d="M97.333,320.667C97.333,137.75,246.521,118,310.667,118
		c31.277,0,84.961,6.276,127.646,42.496c-44.121-46.326-105.352-53.829-139.646-53.829c-64.146,0-213.333,19.75-213.333,202.667
		c0,65.228,23.362,106.948,54.681,133.751C114.898,416.251,97.333,377.281,97.333,320.667z"/>
</g>
<path style="fill:#FEE4D0;" d="M288,490.667c-69.083,0-117.333-57.021-117.333-138.667c0-81.052,32.146-117.333,64-117.333
	c16.24,0,27.615,1.927,40.792,4.156c18,3.052,38.396,6.51,76.542,6.51c45.417,0,66.875-9.854,81.073-16.375
	c6.49-2.99,10.781-4.958,14.927-4.958c14.154,0,18.762,0.191,35.186,25.352c4.654,20.585,7.48,43.789,7.48,70.648
	C490.667,472.979,375,490.667,288,490.667z"/>
<path style="opacity:0.1;enable-background:new    ;" d="M184.667,365.333c0-81.052,32.146-117.333,64-117.333
	c16.24,0,27.615,1.927,40.792,4.156c18,3.052,38.396,6.51,76.542,6.51c45.417,0,66.875-9.854,81.073-16.375
	c6.49-2.99,10.781-4.958,14.927-4.958c5.879,0,10.108,0.143,14.224,1.986C465.125,224.328,459.898,224,448,224
	c-4.146,0-8.438,1.969-14.927,4.958c-14.198,6.521-35.656,16.375-81.073,16.375c-38.146,0-58.542-3.458-76.542-6.51
	c-13.177-2.229-24.552-4.156-40.792-4.156c-31.854,0-64,36.281-64,117.333c0,50.322,18.374,91.227,48.612,115.254
	C197.493,442.698,184.667,407.314,184.667,365.333z"/>
<g>
	<path style="fill:#303C42;" d="M266.667,277.333c-5.896,0-10.667,4.771-10.667,10.667v149.333c0,5.896,4.771,10.667,10.667,10.667
		c5.896,0,10.667-4.771,10.667-10.667V288C277.333,282.104,272.563,277.333,266.667,277.333z"/>
	<path style="fill:#303C42;" d="M437.406,266.667c-0.021,0-0.052,0-0.073,0c-5.854,0-10.625,4.729-10.667,10.594
		c-0.01,0.906-0.885,92.083-20.677,145.708c-2.031,5.531,0.792,11.667,6.313,13.708c1.219,0.448,2.469,0.656,3.698,0.656
		c4.333,0,8.417-2.667,10.01-6.969c21.063-57.104,21.958-149.073,21.99-152.958C448.042,271.521,443.302,266.708,437.406,266.667z"
		/>
</g>
<circle style="opacity:0.2;fill:#FFFFFF;enable-background:new    ;" cx="63.104" cy="75.563" r="24"/>
<linearGradient id="SVGID_1_" gradientUnits="userSpaceOnUse" x1="-48.1578" y1="639.4736" x2="-23.2002" y2="627.8328" gradientTransform="matrix(21.3333 0 0 -21.3333 996.3334 13791.667)">
	<stop  offset="0" style="stop-color:#FFFFFF;stop-opacity:0.2"/>
	<stop  offset="1" style="stop-color:#FFFFFF;stop-opacity:0"/>
</linearGradient>
<path style="fill:url(#SVGID_1_);" d="M298.667,85.333c-31.682,0-60.422,4.12-86.314,11.633C207.362,42.753,162.158,0,106.667,0
	C47.854,0,0,47.854,0,106.667c0,50.105,34.652,91.944,82.436,103.003C70.452,238.559,64,271.853,64,309.333
	C64,458.76,179.708,512,288,512c55.406,0,224,0,224-192C512,173.063,432.25,85.333,298.667,85.333z"/>
<g>
</g>
<g>
</g>
<g>
</g>
<g>
</g>
<g>
</g>
<g>
</g>
<g>
</g>
<g>
</g>
<g>
</g>
<g>
</g>
<g>
</g>
<g>
</g>
<g>
</g>
<g>
</g>
<g>
</g>
</svg>
