<svg id="Capa_1" enable-background="new 0 0 512 512" height="512" viewBox="0 0 512 512" width="512" xmlns="http://www.w3.org/2000/svg"><g><g><path d="m352.069 395.829v84.677c0 13.251-10.743 23.994-23.994 23.994h-40.051c-13.251 0-23.994-10.743-23.994-23.994s10.743-23.994 23.994-23.994h16.057v-60.683z" fill="#0eb4bb"/></g><g><path d="m240.399 395.829v84.677c0 13.251-10.743 23.994-23.994 23.994h-40.051c-13.251 0-23.994-10.743-23.994-23.994s10.743-23.994 23.994-23.994h16.057v-60.683z" fill="#0eb4bb"/></g><g><g><path d="m328.074 512h-40.051c-17.366 0-31.494-14.128-31.494-31.494 0-17.365 14.128-31.493 31.494-31.493h8.558v-53.184c0-4.143 3.357-7.5 7.5-7.5h47.987c4.143 0 7.5 3.357 7.5 7.5v84.677c0 17.366-14.128 31.494-31.494 31.494zm-40.051-47.987c-9.095 0-16.494 7.398-16.494 16.493s7.4 16.494 16.494 16.494h40.051c9.095 0 16.494-7.399 16.494-16.494v-77.177h-32.987v53.184c0 4.143-3.357 7.5-7.5 7.5z" fill="#007ea8"/></g></g><g><g><path d="m216.405 512h-40.051c-17.366 0-31.494-14.128-31.494-31.494 0-17.365 14.128-31.493 31.494-31.493h8.557v-53.184c0-4.143 3.357-7.5 7.5-7.5h47.988c4.143 0 7.5 3.357 7.5 7.5v84.677c0 17.366-14.128 31.494-31.494 31.494zm-40.051-47.987c-9.095 0-16.494 7.398-16.494 16.493s7.4 16.494 16.494 16.494h40.051c9.095 0 16.494-7.399 16.494-16.494v-77.177h-32.988v53.184c0 4.143-3.357 7.5-7.5 7.5z" fill="#007ea8"/></g></g><path d="m192.411 395.829h47.988v32.063h-47.988z" fill="#007ea8"/><path d="m304.081 395.829h47.988v32.063h-47.988z" fill="#007ea8"/><g fill="#f90"><path d="m104.939 90.235v84.379h-56.494v-53.713c0-16.937 13.729-30.666 30.666-30.666z"/><path d="m48.445 174.614h56.494v84.389h-56.494z"/><path d="m104.939 259.003v84.379h-25.828c-16.937 0-30.666-13.729-30.666-30.666v-53.713z"/></g><path d="m356.063 395.829c28.966 0 52.448-23.482 52.448-52.448v-283.433c0-28.966-23.482-52.448-52.448-52.448h-198.676c-28.966 0-52.448 23.482-52.448 52.448v283.434c0 28.966 23.482 52.448 52.448 52.448h198.676z" fill="#ffd600"/><circle cx="315.025" cy="54.386" fill="#f95116" r="12.37"/><g><path d="m282.918 83.616h-52.386c-4.143 0-7.5-3.357-7.5-7.5s3.357-7.5 7.5-7.5h52.386c4.143 0 7.5 3.357 7.5 7.5s-3.357 7.5-7.5 7.5z" fill="#f95116"/></g><circle cx="198.425" cy="54.386" fill="#f95116" r="12.37"/><path d="m411.108 7.5h-55.045c28.966 0 52.448 23.482 52.448 52.448v283.434c0 28.966-23.482 52.448-52.448 52.448h55.045c28.966 0 52.448-23.482 52.448-52.448v-283.434c-.001-28.966-23.482-52.448-52.448-52.448z" fill="#f90"/><path d="m411.107 0c-25.152 0-229.071 0-253.721 0-33.055 0-59.947 26.893-59.947 59.947v22.787h-18.329c-21.045 0-38.166 17.122-38.166 38.167v191.814c0 21.045 17.121 38.166 38.166 38.166h18.815c3.704 29.525 28.948 52.447 59.461 52.447h253.721c33.056 0 59.948-26.893 59.948-59.947v-283.434c.001-33.054-26.892-59.947-59.948-59.947zm-355.163 182.114h41.495v69.389h-41.495zm0-61.213c0-12.774 10.393-23.167 23.166-23.167h18.329v69.38h-41.495zm0 191.815v-46.213h41.495v69.379h-18.329c-12.773 0-23.166-10.393-23.166-23.166zm56.495 30.666v-84.379-84.389-84.38-30.287c0-24.784 20.163-44.947 44.947-44.947h198.676c24.784 0 44.948 20.163 44.948 44.947v283.435c0 24.784-20.164 44.947-44.948 44.947h-198.675c-24.784 0-44.948-20.163-44.948-44.947zm343.617 0c0 24.784-20.164 44.947-44.948 44.947h-15.419c12.552-11.079 20.322-27.302 20.322-44.947v-283.435c0-17.63-7.772-33.87-20.322-44.947h15.419c24.784 0 44.948 20.163 44.948 44.947z" fill="#f95116"/><path d="m319.512 111.807h-125.574c-18.977 0-34.362 15.384-34.362 34.362v160.662c0 18.978 15.384 34.362 34.362 34.362h125.574c18.977 0 34.362-15.384 34.362-34.362v-160.662c0-18.978-15.385-34.362-34.362-34.362z" fill="#88f8d8"/><g><path d="m319.512 348.692h-125.574c-23.083 0-41.862-18.779-41.862-41.861v-160.662c0-23.083 18.779-41.862 41.862-41.862h125.573c23.082 0 41.861 18.779 41.861 41.862v160.662c.001 23.082-18.778 41.861-41.86 41.861zm-125.574-229.385c-14.812 0-26.862 12.051-26.862 26.862v160.662c0 14.812 12.051 26.861 26.862 26.861h125.573c14.812 0 26.861-12.05 26.861-26.861v-160.662c0-14.812-12.05-26.862-26.861-26.862z" fill="#007ea8"/></g><circle cx="256.725" cy="176.914" fill="#17d9c3" r="26.306"/><circle cx="256.725" cy="276.085" fill="#17d9c3" r="26.306"/><g><path d="m256.725 210.72c-18.641 0-33.806-15.165-33.806-33.806s15.165-33.806 33.806-33.806 33.806 15.165 33.806 33.806-15.166 33.806-33.806 33.806zm0-52.612c-10.369 0-18.806 8.437-18.806 18.806s8.437 18.806 18.806 18.806 18.806-8.437 18.806-18.806-8.437-18.806-18.806-18.806z" fill="#007ea8"/></g><g><path d="m256.725 309.891c-18.641 0-33.806-15.165-33.806-33.806s15.165-33.806 33.806-33.806 33.806 15.165 33.806 33.806-15.166 33.806-33.806 33.806zm0-52.612c-10.369 0-18.806 8.437-18.806 18.806s8.437 18.806 18.806 18.806 18.806-8.437 18.806-18.806-8.437-18.806-18.806-18.806z" fill="#007ea8"/></g></g></svg>