<?xml version="1.0" encoding="iso-8859-1"?>
<!-- Generator: Adobe Illustrator 19.0.0, SVG Export Plug-In . SVG Version: 6.00 Build 0)  -->
<svg version="1.1" id="Capa_1" xmlns="http://www.w3.org/2000/svg" xmlns:xlink="http://www.w3.org/1999/xlink" x="0px" y="0px"
	 viewBox="0 0 512 512" style="enable-background:new 0 0 512 512;" xml:space="preserve">
<g>
	<g transform="translate(1 1)">
		<path style="fill:#67B9CC;" d="M84.333,306.167c18.688,0.171,41.728,2.133,54.955,17.067c3.931,4.279,6.331,9.741,6.827,15.531
			c0.293,3.281-0.617,6.556-2.56,9.216c-6.059,7.424-23.211,7.765-31.915,9.557c-11.947,2.475-24.064,4.949-35.84,8.363
			c-10.762,3.347-21.929,5.213-33.195,5.547"/>
		<path style="fill:#A4C2F7;" d="M502.467,331.767c0,19.797-5.12,39.68-35.072,39.68c-0.918,25.543-4.697,50.903-11.264,75.605
			c-7.104,24.748-27.652,43.31-52.992,47.872c-2.62,0.514-5.271,0.856-7.936,1.024c-38.912,2.475-105.387,6.485-140.203,6.485
			s-101.291-4.011-140.203-6.485c-28.603-1.783-52.995-21.358-60.928-48.896c-6.567-24.702-10.346-50.062-11.264-75.605
			c-29.952,0-35.072-19.883-35.072-39.68c0-20.395,37.803-62.208,53.248-78.592l0.085-0.085
			c14.507-32.341,34.56-65.28,49.067-128.683c8.101-37.861,31.108-70.865,63.829-91.563c8.29-5.399,17.026-10.081,26.112-13.995
			c35.198-15.104,75.052-15.104,110.251,0c45.609,18.123,79.288,57.65,89.941,105.557c14.507,63.317,34.56,96.256,49.067,128.597
			v0.085C464.579,269.388,502.467,311.372,502.467,331.767z"/>
		<g>
			<path style="fill:#E3E7F2;" d="M468.333,348.833c0.249,7.348-0.909,14.676-3.413,21.589
				c-4.096,10.496-13.141,18.091-31.659,18.091c-0.918,25.543-4.697,50.903-11.264,75.605c-3.337,11.806-9.862,22.464-18.859,30.805
				c-2.62,0.514-5.271,0.856-7.936,1.024c-38.912,2.475-105.387,6.485-140.203,6.485s-101.291-4.011-140.203-6.485
				c-28.603-1.783-52.995-21.358-60.928-48.896c-6.567-24.702-10.346-50.062-11.264-75.605c-29.952,0-35.072-19.883-35.072-39.68
				c0-20.395,37.803-62.208,53.248-78.592l0.085-0.085c14.507-32.341,34.56-65.28,49.067-128.683
				c8.101-37.861,31.108-70.865,63.829-91.563c33.232-11.981,69.776-10.882,102.229,3.072
				c45.609,18.123,79.288,57.65,89.941,105.557c14.507,63.317,34.56,96.256,49.067,128.597v0.085
				C430.445,286.455,468.333,328.439,468.333,348.833z"/>
			<path style="fill:#E3E7F2;" d="M144.067,138.992c3.992,20.418,20.837,35.842,41.527,38.023
				c20.69,2.181,40.381-9.391,48.543-28.527s2.884-41.359-13.012-54.781C164.189,86.399,147.736,127.011,144.067,138.992z"/>
			<path style="fill:#E3E7F2;" d="M288.875,93.707c-16.31,13.367-21.888,35.868-13.71,55.305
				c8.178,19.437,28.164,31.183,49.124,28.869s37.903-18.136,41.644-38.889C362.264,127.011,345.811,86.399,288.875,93.707z"/>
		</g>
		<g>
			<circle style="fill:#A4C2F7;" cx="173.933" cy="429.9" r="29.867"/>
			<circle style="fill:#A4C2F7;" cx="284.867" cy="370.167" r="46.933"/>
			<circle style="fill:#A4C2F7;" cx="370.2" cy="429.9" r="21.333"/>
			<circle style="fill:#A4C2F7;" cx="195.267" cy="306.167" r="17.067"/>
			<circle style="fill:#A4C2F7;" cx="92.867" cy="408.567" r="17.067"/>
			<path style="fill:#A4C2F7;" d="M314.733,489.633c0.016,0.797-0.013,1.595-0.085,2.389c-22.272,1.024-44.203,1.877-59.648,1.877
				c-4.949,0-10.667-0.085-16.811-0.171c-0.17-1.359-0.256-2.727-0.256-4.096c0-21.208,17.192-38.4,38.4-38.4
				C297.541,451.233,314.733,468.426,314.733,489.633z"/>
		</g>
	</g>
	<path style="fill:#FFFFFF;" d="M269.312,503.263c-4.779,0.085-9.301,0.171-13.312,0.171c-34.816,0-101.291-4.011-140.203-6.485
		c-28.603-1.783-52.995-21.358-60.928-48.896c-6.567-24.702-10.346-50.062-11.264-75.605c-29.952,0-35.072-19.883-35.072-39.68
		c0-20.395,37.803-62.208,53.333-78.677c14.507-32.341,34.56-65.28,49.067-128.683c8.101-37.861,31.108-70.865,63.829-91.563
		c2.475-0.853,4.949-1.707,7.424-2.389c-23.139,21.483-39.083,49.586-45.653,80.469c-5.739,25.847-13.273,51.262-22.546,76.061
		c-8.478,22.738-16.489,48.604-30.529,68.514c-8.434,11.961-19.699,21.465-29.102,32.6c-8.451,10.009-20.223,23.607-20.223,37.523
		c0,20.565,5.12,41.131,35.072,41.131c0.916,26.442,4.692,52.707,11.264,78.336c7.485,28.106,31.925,48.405,60.928,50.603
		C176.128,498.996,232.789,502.58,269.312,503.263z"/>
	<g>
		<path style="fill:#FFFFFF;" d="M54.081,250.597c7.789-17.22,16.262-33.459,23.424-50.159
			c7.251-16.618,13.404-33.694,18.419-51.118c4.082-13.432,6.467-26.984,11.225-41.692c4.737-14.383,11.57-27.987,20.28-40.374
			c17.806-24.529,42.057-43.648,70.064-55.238l6.764,15.669c-25.131,10.348-46.903,27.458-62.898,49.431
			c-7.741,11.017-13.813,23.118-18.019,35.909c-4.097,12.457-6.821,27.125-11.021,41.039c-5.218,18.123-11.617,35.884-19.157,53.17
			c-7.425,17.292-16.068,33.873-23.509,50.35L54.081,250.597z"/>
		<g>
			<path style="fill:#428DFF;" d="M83.169,196.727c0.316,0.481,0.693,0.919,1.123,1.302c0.353,0.413,0.764,0.772,1.222,1.065
				c0.482,0.308,0.984,0.583,1.504,0.822c3.227,1.3,6.92,0.528,9.356-1.957c2.436-2.484,3.135-6.192,1.772-9.393
				c-0.981-2.037-2.682-3.637-4.776-4.49c-2.12-0.759-4.446-0.71-6.532,0.137c-2.028,0.922-3.631,2.578-4.487,4.635
				c-0.786,2.08-0.776,4.377,0.028,6.45L83.169,196.727z"/>
			<path style="fill:#428DFF;" d="M227.65,88.204c-1.259-1.071-2.802-1.751-4.442-1.958c-63.092-8.092-81.992,37.183-86.3,51.25
				c-0.4,1.299-0.483,2.675-0.242,4.012c4.66,24.118,24.516,42.37,48.94,44.985c24.424,2.615,47.695-11.018,57.356-33.603
				C252.623,130.306,246.41,104.061,227.65,88.204z M191.583,170.633c-18.048-0.067-33.67-12.562-37.7-30.154
				c4.95-14.413,20.217-42.188,64.55-37.608c11.44,11.112,15.066,28.016,9.192,42.843
				C221.75,160.54,207.529,170.373,191.583,170.633z"/>
			<path style="fill:#428DFF;" d="M375.333,141.508c0.241-1.338,0.159-2.714-0.242-4.012c-4.308-14.067-23.3-59.354-86.3-51.25
				c-1.639,0.207-3.183,0.888-4.442,1.958c-19.174,15.802-25.685,42.325-16.009,65.21s33.241,36.69,57.935,33.942
				C350.971,184.609,370.924,165.96,375.333,141.508z M281.6,131.246c-0.033-10.692,4.287-20.936,11.967-28.375
				c44.275-4.558,59.6,23.196,64.55,37.608c-4.4,19.354-22.715,32.253-42.421,29.875C295.991,167.976,281.27,151.091,281.6,131.246z
				"/>
			<path style="fill:#428DFF;" d="M162.133,238.9v8.533c0,4.713,3.821,8.533,8.533,8.533c4.713,0,8.533-3.821,8.533-8.533V238.9
				c0.005-4.711,3.822-8.529,8.533-8.533h136.533c4.711,0.005,8.529,3.822,8.533,8.533v8.533c0,4.713,3.82,8.533,8.533,8.533
				s8.533-3.821,8.533-8.533V238.9c-0.015-14.132-11.468-25.585-25.6-25.6H187.733C173.601,213.315,162.149,224.768,162.133,238.9z"
				/>
			<path style="fill:#428DFF;" d="M264.533,264.5c4.713,0,8.533-3.82,8.533-8.533s-3.82-8.533-8.533-8.533h-17.067
				c-4.713,0-8.533,3.821-8.533,8.533s3.821,8.533,8.533,8.533H264.533z"/>
			<path style="fill:#428DFF;" d="M35.552,380.378c1.259,23.656,4.981,47.117,11.106,70.001c8.96,30.993,36.404,53.031,68.6,55.088
				c57.092,3.626,98.441,5.702,125.643,6.308l0.166,0.026l0.116-0.02c5.502,0.121,10.472,0.186,14.817,0.186
				c13.771,0,33.35-0.61,59.017-1.838l0.116-0.006c22.444-1.074,49.521-2.618,81.626-4.656
				c32.177-2.058,59.606-24.076,68.575-55.046c6.128-22.898,9.853-46.372,11.115-70.043C499.974,377.491,512,361.594,512,332.767
				c0-21.028-29.483-56.775-54.658-83.474c-2.872-6.354-5.919-12.724-9.126-19.372c-17.315-33.723-30.36-69.472-38.833-106.421
				c-11.323-50.531-46.82-92.237-94.892-111.492c-37.36-15.967-79.623-15.967-116.983,0l-0.014,0.01l-0.002-0.004
				c-28.007,11.591-52.257,30.71-70.064,55.238c-8.71,12.387-15.544,25.992-20.28,40.375c-4.758,14.708-7.142,28.26-11.225,41.692
				l-2.39,8.019c-1.334,4.47,1.127,9.191,5.555,10.658c2.167,0.704,4.526,0.507,6.547-0.546c2.021-1.053,3.533-2.874,4.198-5.054
				l2.485-8.335c4.2-13.914,6.925-28.582,11.021-41.039c4.206-12.791,10.278-24.891,18.019-35.909
				c15.991-21.968,37.756-39.075,62.88-49.422l0.003-0.001c33.054-14.126,70.444-14.129,103.5-0.009
				c43.016,17.182,74.811,54.445,85.008,99.629c8.735,38.2,22.206,75.159,40.1,110.021c3.225,6.7,6.333,13.133,9.217,19.537
				c0.025,0.071,0.078,0.126,0.104,0.196c0.098,0.261,0.266,0.48,0.389,0.731c0.301,0.635,0.682,1.229,1.133,1.768
				c0.101,0.119,0.141,0.275,0.249,0.389c30.975,32.705,50.992,61.284,50.992,72.813c0,22.704-7.192,31.146-26.542,31.146
				c-10.459-0.346-20.824-2.098-30.817-5.208c-11.708-3.392-23.7-5.875-35.3-8.275l-1.192-0.25c-2.183-0.45-4.858-0.821-7.767-1.217
				c-5.85-0.8-16.742-2.283-19.209-5.304c-0.602-1.021-0.851-2.211-0.708-3.388c0.382-3.881,2.031-7.528,4.692-10.379
				c10.892-12.283,31.725-14.037,48.65-14.192c4.713-0.021,8.517-3.858,8.496-8.571c-0.021-4.713-3.858-8.517-8.571-8.496h-0.075
				c-20.467,0.188-45.925,2.621-61.283,19.958c-5.2,5.728-8.348,13.021-8.95,20.733c-0.399,5.395,1.193,10.75,4.475,15.05
				c6.775,8.304,19.75,10.075,30.183,11.496c2.475,0.338,4.758,0.642,6.608,1.021l1.192,0.246
				c11.275,2.338,22.942,4.75,34.042,7.971c8.656,2.547,17.518,4.334,26.484,5.341c-1.217,22.058-4.708,43.931-10.418,65.272
				c-6.974,24.044-28.282,41.129-53.267,42.712c-13.588,0.863-42.166,2.675-71.536,4.162c0.028-0.653,0.144-1.313,0.144-1.963
				c0-25.921-21.013-46.933-46.933-46.933c-25.921,0-46.933,21.013-46.933,46.933c0,1.276,0.215,2.525,0.317,3.79
				c-39.939-1.263-93.994-4.695-114.358-5.99c-25.005-1.581-46.327-18.687-53.292-42.754c-5.706-21.327-9.194-43.187-10.409-65.231
				c8.978-1.009,17.851-2.8,26.518-5.353c11.067-3.209,22.733-5.621,34.008-7.958l1.183-0.242c1.858-0.383,4.142-0.687,6.617-1.025
				c10.433-1.421,23.408-3.191,30.242-11.571c3.259-4.308,4.828-9.66,4.408-15.046c-0.612-7.695-3.763-14.97-8.958-20.679
				c-15.342-17.321-40.8-19.754-61.267-19.941h-0.075c-4.713-0.021-8.55,3.783-8.571,8.496c-0.021,4.713,3.783,8.55,8.496,8.571
				c16.925,0.154,37.758,1.908,48.633,14.175c2.656,2.833,4.308,6.461,4.7,10.325c0.151,1.167-0.074,2.352-0.642,3.383
				c-2.525,3.096-13.417,4.579-19.267,5.379c-2.908,0.396-5.583,0.767-7.775,1.221l-1.183,0.242
				c-11.6,2.404-23.592,4.887-35.267,8.267c-10.002,3.117-20.379,4.873-30.85,5.221c-19.35,0-26.542-8.442-26.542-31.146
				c0-11.516,19.974-40.044,50.889-72.701l0.011-0.008l0.083-0.087c0.644-0.714,1.16-1.534,1.524-2.424l0.079,0.035
				c4.578-10.153,9.623-20.315,14.541-30.677c2.021-4.258,0.207-9.348-4.051-11.368c-4.258-2.021-9.348-0.207-11.368,4.051
				c-4.628,9.757-9.467,19.556-14.064,29.663C29.514,275.956,0,311.725,0,332.767C0,361.594,12.027,377.491,35.552,380.378z
				 M247.467,490.633c0-16.495,13.372-29.867,29.867-29.867s29.867,13.372,29.867,29.867c0,0.929-0.117,1.856-0.206,2.783
				C287.802,494.28,269.442,494.9,256,494.9c-2.551,0-5.306-0.026-8.182-0.068C247.602,493.443,247.485,492.04,247.467,490.633z"/>
			<path style="fill:#428DFF;" d="M136.533,430.9c0,21.208,17.192,38.4,38.4,38.4s38.4-17.192,38.4-38.4
				c0-21.208-17.192-38.4-38.4-38.4C153.735,392.523,136.556,409.702,136.533,430.9z M196.267,430.9
				c0,11.782-9.551,21.333-21.333,21.333c-11.782,0-21.333-9.551-21.333-21.333c0-11.782,9.551-21.333,21.333-21.333
				C186.71,409.579,196.254,419.123,196.267,430.9z"/>
			<path style="fill:#428DFF;" d="M285.867,426.633c30.633,0,55.467-24.833,55.467-55.467S316.5,315.7,285.867,315.7
				S230.4,340.533,230.4,371.167C230.435,401.785,255.248,426.598,285.867,426.633z M285.867,332.767
				c21.208,0,38.4,17.192,38.4,38.4c0,21.208-17.192,38.4-38.4,38.4c-21.208,0-38.4-17.192-38.4-38.4
				C247.49,349.969,264.669,332.79,285.867,332.767z"/>
			<path style="fill:#428DFF;" d="M371.2,460.767c16.495,0,29.867-13.372,29.867-29.867c0-16.495-13.372-29.867-29.867-29.867
				c-16.495,0-29.867,13.372-29.867,29.867C341.353,447.387,354.713,460.747,371.2,460.767z M371.2,418.1
				c7.069,0,12.8,5.731,12.8,12.8c0,7.069-5.731,12.8-12.8,12.8s-12.8-5.731-12.8-12.8C358.408,423.834,364.134,418.108,371.2,418.1
				z"/>
			<path style="fill:#428DFF;" d="M221.867,307.167c0-14.138-11.462-25.6-25.6-25.6s-25.6,11.462-25.6,25.6
				c0,14.138,11.462,25.6,25.6,25.6C210.399,332.751,221.851,321.299,221.867,307.167z M196.267,315.7
				c-4.713,0-8.533-3.821-8.533-8.533c0-4.713,3.821-8.533,8.533-8.533s8.533,3.821,8.533,8.533
				C204.795,311.878,200.978,315.695,196.267,315.7z"/>
			<path style="fill:#428DFF;" d="M93.867,383.967c-14.138,0-25.6,11.462-25.6,25.6c0,14.138,11.462,25.6,25.6,25.6
				s25.6-11.462,25.6-25.6C119.451,395.435,107.999,383.982,93.867,383.967z M93.867,418.1c-4.713,0-8.533-3.82-8.533-8.533
				s3.821-8.533,8.533-8.533c4.713,0,8.533,3.82,8.533,8.533C102.395,414.278,98.578,418.095,93.867,418.1z"/>
			<path style="fill:#428DFF;" d="M196.267,127.967h-8.533c-4.713,0-8.533,3.821-8.533,8.533c0,4.713,3.821,8.533,8.533,8.533h8.533
				c4.713,0,8.533-3.821,8.533-8.533C204.8,131.787,200.98,127.967,196.267,127.967z"/>
			<path style="fill:#428DFF;" d="M332.8,136.5c0.001-2.263-0.898-4.434-2.499-6.035c-1.6-1.6-3.771-2.499-6.035-2.499h-8.533
				c-4.713,0-8.533,3.82-8.533,8.533c0,4.713,3.821,8.533,8.533,8.533h8.533c2.263,0.001,4.434-0.898,6.035-2.499
				C331.902,140.934,332.801,138.763,332.8,136.5z"/>
		</g>
	</g>
</g>
<g>
</g>
<g>
</g>
<g>
</g>
<g>
</g>
<g>
</g>
<g>
</g>
<g>
</g>
<g>
</g>
<g>
</g>
<g>
</g>
<g>
</g>
<g>
</g>
<g>
</g>
<g>
</g>
<g>
</g>
</svg>
