<?xml version="1.0" encoding="iso-8859-1"?>
<!-- Generator: Adobe Illustrator 18.0.0, SVG Export Plug-In . SVG Version: 6.00 Build 0)  -->
<!DOCTYPE svg PUBLIC "-//W3C//DTD SVG 1.1//EN" "http://www.w3.org/Graphics/SVG/1.1/DTD/svg11.dtd">
<svg version="1.1" id="Capa_1" xmlns="http://www.w3.org/2000/svg" xmlns:xlink="http://www.w3.org/1999/xlink" x="0px" y="0px"
	 viewBox="0 0 437.01 437.01" style="enable-background:new 0 0 437.01 437.01;" xml:space="preserve">
<g>
	<path d="M188.72,178.715h-59.57c-5.522,0-10,4.477-10,10v59.57c0,5.523,4.478,10,10,10h59.57c5.522,0,10-4.477,10-10v-59.57
		C198.72,183.192,194.242,178.715,188.72,178.715z M178.72,238.285h-39.57v-39.57h39.57V238.285z"/>
	<path d="M307.859,178.715H248.29c-5.522,0-10,4.477-10,10v59.57c0,5.523,4.478,10,10,10h59.569c5.522,0,10-4.477,10-10v-59.57
		C317.859,183.192,313.382,178.715,307.859,178.715z M297.859,238.285H258.29v-39.57h39.569V238.285z"/>
	<path d="M427.01,238.275h-49.57v-109.13c0-5.523-4.478-10-10-10h-49.58v-49.57c0-5.523-4.478-10-10-10h-178.71
		c-5.522,0-10,4.477-10,10v49.57h-49.58c-5.522,0-10,4.477-10,10v109.13H10c-5.522,0-10,4.477-10,10v119.16c0,5.523,4.478,10,10,10
		h59.569c5.522,0,10-4.477,10-10v-49.58h39.58v49.58c0,5.523,4.478,10,10,10h59.57c5.522,0,10-4.477,10-10v-49.58h39.57v49.58
		c0,5.523,4.478,10,10,10h59.569c5.522,0,10-4.477,10-10v-49.58h39.58v49.58c0,5.523,4.478,10,10,10h59.57c5.522,0,10-4.477,10-10
		v-119.16C437.01,242.752,432.532,238.275,427.01,238.275z M417.01,357.435h-39.57v-49.58c0-5.523-4.478-10-10-10h-59.58
		c-5.522,0-10,4.477-10,10v49.58H258.29v-49.58c0-5.523-4.478-10-10-10h-59.57c-5.522,0-10,4.477-10,10v49.58h-39.57v-49.58
		c0-5.523-4.478-10-10-10h-59.58c-5.522,0-10,4.477-10,10v49.58H20v-99.16h49.569c5.522,0,10-4.477,10-10v-109.13h49.58
		c5.522,0,10-4.477,10-10v-49.57h158.71v49.57c0,5.523,4.478,10,10,10h49.58v109.13c0,5.523,4.478,10,10,10h49.57V357.435z"/>
</g>
<g>
</g>
<g>
</g>
<g>
</g>
<g>
</g>
<g>
</g>
<g>
</g>
<g>
</g>
<g>
</g>
<g>
</g>
<g>
</g>
<g>
</g>
<g>
</g>
<g>
</g>
<g>
</g>
<g>
</g>
</svg>
