<?xml version="1.0" encoding="iso-8859-1"?>
<!-- Generator: Adobe Illustrator 17.1.0, SVG Export Plug-In . SVG Version: 6.00 Build 0)  -->
<!DOCTYPE svg PUBLIC "-//W3C//DTD SVG 1.1//EN" "http://www.w3.org/Graphics/SVG/1.1/DTD/svg11.dtd">
<svg version="1.1" id="Capa_1" xmlns="http://www.w3.org/2000/svg" xmlns:xlink="http://www.w3.org/1999/xlink" x="0px" y="0px"
	 viewBox="0 0 512.119 512.119" style="enable-background:new 0 0 512.119 512.119;" xml:space="preserve">
<g>
	<path d="M470.623,508.752c0.078-0.11,0.154-0.222,0.226-0.336c0.07-0.11,0.138-0.221,0.202-0.333
		c0.064-0.112,0.125-0.226,0.183-0.341c0.06-0.118,0.118-0.236,0.172-0.357c0.052-0.117,0.101-0.236,0.148-0.356
		c0.048-0.122,0.093-0.245,0.135-0.368c0.041-0.123,0.078-0.247,0.114-0.373c0.036-0.127,0.069-0.254,0.098-0.382
		c0.028-0.124,0.053-0.249,0.076-0.375c0.024-0.136,0.045-0.272,0.062-0.408c0.015-0.12,0.028-0.241,0.037-0.363
		c0.012-0.146,0.019-0.292,0.022-0.439c0.002-0.068,0.01-0.135,0.01-0.203V216.049c0-57.709-22.473-111.963-63.279-152.77
		C368.023,22.473,313.769,0,256.06,0S144.096,22.473,103.289,63.279C62.483,104.086,40.01,158.34,40.01,216.049v288.069
		c0,0.07,0.009,0.137,0.01,0.206c0.004,0.146,0.01,0.292,0.022,0.438c0.01,0.122,0.023,0.244,0.038,0.365
		c0.017,0.136,0.038,0.272,0.062,0.407c0.023,0.126,0.048,0.251,0.076,0.375c0.029,0.128,0.062,0.255,0.098,0.382
		c0.035,0.125,0.073,0.249,0.114,0.372c0.042,0.124,0.087,0.246,0.135,0.368c0.047,0.12,0.096,0.239,0.149,0.356
		c0.054,0.12,0.111,0.238,0.171,0.355c0.059,0.116,0.12,0.23,0.185,0.343c0.064,0.112,0.131,0.221,0.201,0.331
		c0.074,0.115,0.15,0.228,0.229,0.339c0.071,0.1,0.144,0.198,0.22,0.295c0.09,0.115,0.184,0.227,0.281,0.337
		c0.046,0.052,0.085,0.107,0.132,0.158c0.033,0.036,0.069,0.065,0.103,0.1c0.112,0.117,0.228,0.228,0.347,0.338
		c0.085,0.079,0.169,0.158,0.256,0.233c0.115,0.097,0.234,0.188,0.354,0.278c0.097,0.073,0.192,0.149,0.291,0.218
		c0.121,0.083,0.248,0.158,0.373,0.234c0.102,0.062,0.203,0.129,0.307,0.186c0.147,0.081,0.3,0.151,0.453,0.222
		c0.087,0.041,0.171,0.087,0.259,0.125c0.727,0.31,1.509,0.516,2.328,0.598c0.173,0.018,0.348,0.02,0.522,0.026
		c0.095,0.003,0.188,0.014,0.284,0.014h0.001h0.001c0.258,0,0.515-0.014,0.772-0.039c0.096-0.009,0.189-0.026,0.284-0.039
		c0.158-0.021,0.316-0.042,0.473-0.072c0.112-0.022,0.221-0.05,0.331-0.077c0.137-0.033,0.274-0.065,0.409-0.105
		c0.113-0.033,0.223-0.072,0.334-0.111c0.13-0.045,0.259-0.09,0.387-0.142c0.109-0.044,0.215-0.092,0.321-0.14
		c0.125-0.057,0.249-0.115,0.372-0.179c0.105-0.054,0.207-0.113,0.309-0.172c0.117-0.068,0.233-0.137,0.347-0.211
		c0.104-0.067,0.205-0.138,0.305-0.21c0.105-0.075,0.209-0.152,0.311-0.232c0.103-0.082,0.203-0.167,0.302-0.254
		c0.055-0.048,0.114-0.091,0.168-0.141l46.564-43l46.564,43c3.063,2.83,7.789,2.83,10.854,0l46.566-43l46.578,43
		c3.066,2.831,7.792,2.83,10.855-0.001l46.552-43l46.595,43.002c3.063,2.827,7.784,2.828,10.85,0.002l46.635-43.009l46.635,43.009
		c0.052,0.048,0.107,0.087,0.16,0.133c0.108,0.095,0.218,0.187,0.331,0.276c0.099,0.077,0.198,0.152,0.299,0.224
		c0.11,0.078,0.222,0.154,0.336,0.227c0.11,0.07,0.22,0.137,0.332,0.202c0.113,0.064,0.227,0.125,0.343,0.184
		c0.117,0.06,0.235,0.117,0.354,0.171c0.118,0.053,0.238,0.102,0.36,0.149c0.12,0.047,0.241,0.092,0.363,0.133
		c0.125,0.042,0.251,0.08,0.379,0.116c0.124,0.035,0.248,0.067,0.374,0.096c0.127,0.029,0.255,0.055,0.384,0.078
		c0.132,0.024,0.264,0.044,0.396,0.06c0.125,0.016,0.25,0.029,0.376,0.039c0.141,0.011,0.283,0.018,0.424,0.021
		c0.071,0.002,0.14,0.011,0.212,0.011c0.054,0,0.105-0.007,0.159-0.008c0.138-0.003,0.276-0.011,0.414-0.021
		c0.13-0.009,0.26-0.019,0.389-0.034c0.123-0.015,0.245-0.036,0.368-0.056c0.139-0.023,0.277-0.047,0.414-0.077
		c0.112-0.025,0.223-0.056,0.334-0.086c0.14-0.038,0.28-0.075,0.417-0.12c0.111-0.036,0.22-0.079,0.33-0.121
		c0.131-0.049,0.261-0.098,0.389-0.154c0.116-0.051,0.229-0.108,0.342-0.165c0.116-0.058,0.234-0.115,0.347-0.178
		c0.116-0.065,0.229-0.136,0.342-0.208c0.107-0.067,0.214-0.133,0.317-0.205c0.108-0.075,0.213-0.157,0.318-0.238
		c0.104-0.08,0.208-0.161,0.308-0.246c0.094-0.081,0.186-0.166,0.277-0.252c0.104-0.098,0.207-0.197,0.306-0.3
		c0.036-0.037,0.075-0.07,0.11-0.108c0.047-0.052,0.087-0.107,0.133-0.16c0.095-0.108,0.187-0.218,0.276-0.331
		C470.476,508.952,470.551,508.853,470.623,508.752z M406.626,450.226l-46.633,43.007l-46.599-43.005
		c-3.065-2.829-7.791-2.828-10.854,0.002l-46.551,42.999l-46.578-43c-3.065-2.83-7.79-2.83-10.854,0l-46.565,43l-46.564-43
		c-3.064-2.831-7.79-2.831-10.854,0L56.01,485.842V216.049C56.01,105.742,145.752,16,256.06,16s200.049,89.742,200.049,200.049
		v269.808l-38.635-35.631C414.41,447.401,409.691,447.401,406.626,450.226z"/>
	<path d="M201.491,200.681c-4.047,1.773-5.89,6.491-4.117,10.538c1.774,4.049,2.674,8.367,2.674,12.832
		c0,17.65-14.359,32.01-32.009,32.01c-17.65,0-32.01-14.359-32.01-32.01c0-17.65,14.359-32.009,32.01-32.009
		c4.451,0,8.755,0.894,12.792,2.656c4.049,1.766,8.765-0.082,10.533-4.131c1.768-4.049-0.082-8.765-4.131-10.533
		c-6.068-2.649-12.526-3.992-19.193-3.992c-26.473,0-48.01,21.537-48.01,48.009c0,26.473,21.537,48.01,48.01,48.01
		c26.472,0,48.009-21.537,48.009-48.01c0-6.689-1.352-13.167-4.019-19.253C210.256,200.751,205.536,198.907,201.491,200.681z"/>
	<path d="M377.533,200.681c-4.047,1.773-5.89,6.491-4.117,10.538c1.774,4.049,2.674,8.367,2.674,12.832
		c0,17.65-14.359,32.01-32.009,32.01c-17.65,0-32.01-14.359-32.01-32.01c0-17.65,14.359-32.009,32.01-32.009
		c4.451,0,8.755,0.894,12.792,2.656c4.048,1.766,8.765-0.082,10.533-4.131c1.768-4.049-0.082-8.765-4.131-10.533
		c-6.068-2.649-12.526-3.992-19.193-3.992c-26.473,0-48.01,21.537-48.01,48.009c0,26.473,21.537,48.01,48.01,48.01
		c26.472,0,48.009-21.537,48.009-48.01c0-6.689-1.352-13.167-4.019-19.253C386.298,200.751,381.579,198.907,377.533,200.681z"/>
</g>
<g>
</g>
<g>
</g>
<g>
</g>
<g>
</g>
<g>
</g>
<g>
</g>
<g>
</g>
<g>
</g>
<g>
</g>
<g>
</g>
<g>
</g>
<g>
</g>
<g>
</g>
<g>
</g>
<g>
</g>
</svg>
